# xmcd
#
# Track frame offsets:
#	150
#	15901
#	27160
#	39426
#	53265
#	66846
#	80497
#	94273
#	109374
#	122825
#	135193
#	144686
#	159678
#	171731
#	183598
#	200207
#	209857
#	223710
#
# Disc length: 3166 seconds
#
# Revision: 0
# Processed by: cddbd v1.5.2PL0 Copyright (c) Steve Scherf et al.
# Submitted via: EZCDAudioConverter 2.1.7.1
#
DISCID=0f0c5c12
DTITLE=V/A - Highlife On The Move 2/2
DYEAR=1900
DGENRE=
TTITLE0=Fela Ransome-Kuti and The Highlife Rakers - Aigana
TTITLE1=Nigerian Union Rhythm Group - Tortoise Mambo
TTITLE2=Bobby Benson and His Combo - Niger Mambo
TTITLE3=Rans Boi's African Highlife Band - Highlife Comes To Europe
TTITLE4=Eddie Lamptey and The Peoples Highlife Band feat. Eddie Red Tettey - Mar
TTITLE4=ia
TTITLE5=West African Rhythm Brothers - Egbe Mi
TTITLE6=West African Rhythm Brothers - Iwa D'Arekere
TTITLE7=West African Swing Stars - Omo Africa
TTITLE8=Ginger Folorunso Johnson and His Afro-Cuban Band - Brown Skin Gal
TTITLE9=Awotwi Paynin and His Ghana Rockers - Brown Skin Gal
TTITLE10=Buddy Pipp's Highlifers - Georgina
TTITLE11=T. Odueso's Akesan Highlifers - Eyo Mano Mi
TTITLE12=Nigerian Union Rhythm Group - Ojikolobo
TTITLE13=Willie Payne and The Starlite Tempos - Wa Sise
TTITLE14=Fela Ransome-Kuti and His Koola Lobitos - Nigerian Independence
TTITLE15=Black Star Band - Abrokyiri Awo Yi 
TTITLE16=Black Star Band - Ekuona Rhythm
TTITLE17=Victor Ola-Iya and His 'Cool Cats' - Anyin Ga Na
EXTD=
EXTT0=
EXTT1=
EXTT2=
EXTT3=
EXTT4=
EXTT5=
EXTT6=
EXTT7=
EXTT8=
EXTT9=
EXTT10=
EXTT11=
EXTT12=
EXTT13=
EXTT14=
EXTT15=
EXTT16=
EXTT17=
PLAYORDER=
